<svg xmlns="http://www.w3.org/2000/svg" viewBox="0 0 1024 1024">
  <defs>
    <linearGradient id="appBackdrop" x1="160" y1="80" x2="860" y2="940" gradientUnits="userSpaceOnUse">
      <stop offset="0" stop-color="#F8F1E7"/>
      <stop offset="1" stop-color="#D7EFE9"/>
    </linearGradient>
    <linearGradient id="binding" x1="276" y1="172" x2="754" y2="904" gradientUnits="userSpaceOnUse">
      <stop offset="0" stop-color="#FFFFFF"/>
      <stop offset="1" stop-color="#F0E2D1"/>
    </linearGradient>
    <filter id="shadow" x="-20%" y="-20%" width="140%" height="140%">
      <feDropShadow dx="0" dy="28" stdDeviation="28" flood-color="#17313A" flood-opacity="0.28"/>
    </filter>
  </defs>

  <rect width="1024" height="1024" rx="220" fill="url(#appBackdrop)"/>
  <path d="M190 764c78 68 190 106 324 106 142 0 250-42 325-113v66c0 72-144 130-322 130S190 895 190 823v-59Z" fill="#1A6F74" opacity="0.14"/>

  <g filter="url(#shadow)">
    <rect x="204" y="142" width="616" height="716" rx="72" fill="url(#binding)"/>
    <rect x="250" y="188" width="524" height="624" rx="38" fill="#243C49"/>
    <rect x="286" y="224" width="452" height="452" rx="22" fill="#F9F6EF"/>

    <g stroke="#F9F6EF" stroke-width="16" stroke-linejoin="round">
      <path d="M286 224h452v452H286z" fill="none"/>
      <path d="M512 224v452M286 450h452M399 224v452M625 224v452M286 337h452M286 563h452"/>
    </g>

    <path d="M286 224h226L399 337 286 224Z" fill="#E75B4D"/>
    <path d="M512 224h226L625 337 512 224Z" fill="#F3B33E"/>
    <path d="M286 224v226l113-113-113-113Z" fill="#2E8DA0"/>
    <path d="M738 224v226L625 337l113-113Z" fill="#577A54"/>

    <path d="M399 337 512 224l113 113-113 113-113-113Z" fill="#FFFFFF"/>
    <path d="M399 337 286 450l113 113 113-113-113-113Z" fill="#F3B33E"/>
    <path d="M625 337 738 450 625 563 512 450l113-113Z" fill="#E75B4D"/>
    <path d="M399 563 512 450l113 113-113 113-113-113Z" fill="#2E8DA0"/>

    <path d="M512 450m-86 0a86 86 0 1 0 172 0a86 86 0 1 0-172 0" fill="#F9F6EF"/>
    <path d="M512 342 544 418 621 450 544 482 512 558 480 482 403 450 480 418Z" fill="#243C49"/>
    <path d="M512 384 532 430 578 450 532 470 512 516 492 470 446 450 492 430Z" fill="#F3B33E"/>

    <g fill="none" stroke="#CBBBA6" stroke-linecap="round" stroke-width="14">
      <path d="M316 728h316"/>
      <path d="M316 768h244"/>
    </g>
    <g fill="#E75B4D">
      <circle cx="678" cy="728" r="15"/>
      <circle cx="722" cy="728" r="15"/>
      <circle cx="678" cy="768" r="15"/>
      <circle cx="722" cy="768" r="15"/>
    </g>
  </g>
</svg>
